# xmcd
#
# Track frame offsets: 
#        183
#        24770
#        42833
#        57738
#        75768
#        89370
#        105045
#        120470
#        135445
#        151093
#        163883
#        177928
#        190875
#        204648
#        217695
#        233123
#        246630
#        259070
#        276063
#        291513
#
# Disc length: 4126 seconds
#
# Revision: 0
# Processed by: cddbd v1.4PL0 Copyright (c) Steve Scherf et al.
# Submitted via: ExactAudioCopy v0.90b3
#
DISCID=0a101c14
DTITLE=Ernest Tubb - The Texas Troubadour In Concert
DYEAR=1900
DGENRE=Country
TTITLE0=Intro-Driving Nails In My Coffin
TTITLE1=I Love You Because
TTITLE2=There's A Little Bit Of Everything In Texas
TTITLE3=Blue Eyed Elaine
TTITLE4=Slipping Around
TTITLE5=Mississippi Gal (I Love You)
TTITLE6=I'll Take A Back Seat For You
TTITLE7=Warm Red Wine
TTITLE8=Seaman's Blues
TTITLE9=Thanks A Lot
TTITLE10=Pass The Booze
TTITLE11=You Don't Have To Be A Baby To Cry
TTITLE12=Walkin' The Floor Over You
TTITLE13=Do What You Do Well
TTITLE14=Soldier's Last Letter
TTITLE15=Pass The Booze (Reprise)
TTITLE16=(A Memory) That's All You'll Ever Be To Me
TTITLE17=Driftwood On The River
TTITLE18=Try Me One More Time
TTITLE19=Walkin' The Floor Over You (Reprise)
EXTD=
EXTT0=
EXTT1=
EXTT2=
EXTT3=
EXTT4=
EXTT5=
EXTT6=
EXTT7=
EXTT8=
EXTT9=
EXTT10=
EXTT11=
EXTT12=
EXTT13=
EXTT14=
EXTT15=
EXTT16=
EXTT17=
EXTT18=
EXTT19=
PLAYORDER=
